<?xml version="1.0" encoding="UTF-8" standalone="no"?>
<!-- Created with Inkscape (http://www.inkscape.org/) -->

<svg
   xmlns:ns0="http://www.iki.fi/pav/software/textext/"
   xmlns:dc="http://purl.org/dc/elements/1.1/"
   xmlns:cc="http://creativecommons.org/ns#"
   xmlns:rdf="http://www.w3.org/1999/02/22-rdf-syntax-ns#"
   xmlns:svg="http://www.w3.org/2000/svg"
   xmlns="http://www.w3.org/2000/svg"
   xmlns:sodipodi="http://sodipodi.sourceforge.net/DTD/sodipodi-0.dtd"
   xmlns:inkscape="http://www.inkscape.org/namespaces/inkscape"
   width="499.99731"
   height="85.927826"
   id="svg3895"
   version="1.1"
   inkscape:version="0.48.3.1 r9886"
   sodipodi:docname="helmholtz_equation.svg">
  <defs
     id="defs3897" />
  <sodipodi:namedview
     id="base"
     pagecolor="#ffffff"
     bordercolor="#666666"
     borderopacity="1.0"
     inkscape:pageopacity="0.0"
     inkscape:pageshadow="2"
     inkscape:zoom="1.2537109"
     inkscape:cx="263.9666"
     inkscape:cy="-141.61308"
     inkscape:document-units="px"
     inkscape:current-layer="layer1"
     showgrid="false"
     fit-margin-top="0"
     fit-margin-left="0"
     fit-margin-right="0"
     fit-margin-bottom="0"
     inkscape:window-width="1920"
     inkscape:window-height="1059"
     inkscape:window-x="0"
     inkscape:window-y="0"
     inkscape:window-maximized="1" />
  <metadata
     id="metadata3900">
    <rdf:RDF>
      <cc:Work
         rdf:about="">
        <dc:format>image/svg+xml</dc:format>
        <dc:type
           rdf:resource="http://purl.org/dc/dcmitype/StillImage" />
        <dc:title></dc:title>
      </cc:Work>
    </rdf:RDF>
  </metadata>
  <g
     inkscape:label="Layer 1"
     inkscape:groupmode="layer"
     id="layer1"
     transform="translate(-111.0334,-311.20234)">
    <g
       id="g7324"
       transform="matrix(3.640481,0,0,-3.7799268,-1078.38,2111.5106)"
       xml:space="preserve"
       stroke-miterlimit="10.433"
       font-style="normal"
       font-variant="normal"
       font-weight="normal"
       font-stretch="normal"
       font-size-adjust="none"
       letter-spacing="normal"
       word-spacing="normal"
       ns0:text="\\begin{small}\n  \\[\\int_\\Omega \\nabla v \\cdot \\nabla u - \\lambda v u ~\\dV = \\int_{\\Omega} v f ~\\dV\\]\n\\end{small}"
       ns0:preamble="/home/fr710/Documents/projects/mapdes/diagrams/abstractions_svg/preamble.tex"
       style="font-style:normal;font-variant:normal;font-weight:normal;font-stretch:normal;letter-spacing:normal;word-spacing:normal;text-anchor:start;fill:none;stroke:#000000;stroke-width:0.26957458;stroke-linecap:butt;stroke-linejoin:miter;stroke-miterlimit:10.43299961;stroke-opacity:1;stroke-dasharray:none;stroke-dashoffset:0;display:inline">
<path
   style="fill:#000000;stroke-width:0"
   inkscape:connector-curvature="0"
   d="m 327.24,454.61 0.03,0.01 0.03,0 0.03,0 0.03,0.01 0.02,0.01 0.03,0 0.02,0.01 0.02,0.01 0.03,0.01 0.02,0.01 0.02,0.02 0.02,0.01 0.02,0.01 0.01,0.02 0.02,0.01 0.02,0.02 0.01,0.02 0.01,0.01 0.02,0.02 0.01,0.02 0.01,0.02 0.01,0.02 0.01,0.02 0.01,0.02 0.01,0.02 0,0.02 0.01,0.03 0,0.02 0.01,0.02 0,0.02 0,0.03 0,0.02 c 0,0.33 -0.25,0.49 -0.48,0.49 -0.24,0 -0.48,-0.15 -0.48,-0.5 0,-0.51 0.49,-0.92 1.1,-0.92 1.51,0 2.08,2.32 2.78,5.2 0.77,3.14 1.42,6.31 1.96,9.5 0.36,2.11 0.73,4.1 1.07,5.38 0.12,0.49 0.46,1.77 0.85,1.77 0.3,0 0.55,-0.19 0.59,-0.23 -0.33,-0.02 -0.5,-0.24 -0.5,-0.49 0,-0.32 0.25,-0.48 0.48,-0.48 0.24,0 0.49,0.15 0.49,0.5 0,0.53 -0.54,0.92 -1.08,0.92 -0.76,0 -1.32,-1.08 -1.87,-3.11 -0.03,-0.11 -1.38,-5.1 -2.47,-11.59 -0.26,-1.52 -0.55,-3.18 -0.88,-4.56 -0.18,-0.73 -0.64,-2.6 -1.44,-2.6 -0.36,0 -0.6,0.23 -0.61,0.23 z"
   id="path7326" />
<path
   style="fill:#000000;stroke-width:0"
   inkscape:connector-curvature="0"
   d="m 336.54,454.62 h -0.22 c -0.04,-0.15 -0.08,-0.35 -0.13,-0.46 -0.03,-0.06 -0.05,-0.12 -0.42,-0.12 h -0.53 c 0.1,0.31 0.26,0.52 0.54,0.88 0.35,0.44 0.68,0.85 0.68,1.39 0,0.81 -0.91,1.49 -2.12,1.49 -1.22,0 -2.13,-0.69 -2.13,-1.49 0,-0.54 0.33,-0.95 0.68,-1.39 0.26,-0.33 0.44,-0.56 0.54,-0.88 h -0.53 c -0.37,0 -0.39,0.06 -0.42,0.14 -0.04,0.09 -0.07,0.23 -0.12,0.44 h -0.22 l 0.22,-1.02 h 1.14 c 0.13,0 0.18,0 0.18,0.14 0,0.45 -0.25,0.97 -0.42,1.33 -0.19,0.39 -0.38,0.81 -0.38,1.24 0,0.84 0.72,1.3 1.45,1.3 0.77,0 1.47,-0.48 1.47,-1.3 0,-0.39 -0.16,-0.77 -0.37,-1.21 -0.2,-0.41 -0.43,-0.91 -0.43,-1.36 0,-0.14 0.04,-0.14 0.17,-0.14 h 1.14 z"
   id="path7328" />
<path
   style="fill:#000000;stroke-width:0"
   inkscape:connector-curvature="0"
   d="m 346.15,468.83 0,0 0,0 0.01,0.01 0,0 0,0 0,0.01 0,0 0,0 0,0.01 0.01,0 0,0.01 0,0 0,0.01 0.01,0.01 0,0.01 0.01,0.01 0,0 0,0 0,0.01 0,0 0,0.01 0,0 0,0.01 0.01,0 0,0 0,0.01 0,0 0,0 c 0,0.08 -0.06,0.08 -0.23,0.08 h -6.33 c -0.16,0 -0.22,0 -0.22,-0.08 0,-0.03 0.03,-0.09 0.04,-0.12 l 3.08,-5.97 c 0.1,-0.19 0.12,-0.23 0.26,-0.23 0.16,0 0.18,0.05 0.25,0.19 l 0.04,0.67 -2.51,4.87 h 5.02 l -2.51,-4.87 -0.04,-0.67 z"
   id="path7330" />
<path
   style="fill:#000000;stroke-width:0"
   inkscape:connector-curvature="0"
   d="m 350.97,466.23 0,0.03 0,0.02 -0.01,0.03 0,0.03 0,0.02 0,0.03 -0.01,0.02 0,0.03 0,0.02 -0.01,0.02 0,0.02 -0.01,0.02 0,0.02 -0.01,0.02 0,0.02 -0.01,0.01 0,0.02 -0.01,0.02 -0.01,0.01 0,0.02 -0.01,0.01 -0.01,0.02 -0.01,0.01 0,0.01 -0.02,0.02 -0.02,0.03 -0.01,0.02 -0.02,0.01 -0.02,0.02 -0.01,0.01 -0.02,0.01 -0.02,0.01 -0.02,0.01 -0.01,0.01 -0.02,0.01 -0.02,0 -0.01,0.01 -0.02,0 -0.01,0 -0.02,0.01 -0.01,0 -0.01,0 -0.01,0 -0.01,0 c -0.22,0 -0.45,-0.24 -0.45,-0.45 0,-0.13 0.08,-0.2 0.14,-0.26 0.24,-0.22 0.32,-0.51 0.32,-0.74 0,-0.39 -0.56,-2.39 -1.6,-2.39 -0.67,0 -0.67,0.63 -0.67,0.79 0,0.38 0.12,0.84 0.44,1.65 0.14,0.38 0.18,0.47 0.18,0.64 0,0.44 -0.33,0.75 -0.77,0.75 -0.86,0 -1.22,-1.27 -1.22,-1.38 0,-0.08 0.06,-0.1 0.12,-0.1 0.1,0 0.11,0.05 0.15,0.17 0.19,0.65 0.54,1.09 0.92,1.09 0.18,0 0.21,-0.12 0.21,-0.3 0,-0.15 -0.03,-0.31 -0.11,-0.53 -0.32,-0.85 -0.54,-1.43 -0.54,-1.87 0,-0.84 0.64,-1.13 1.25,-1.13 1.51,0 2.05,2.82 2.05,3.4 z"
   id="path7332" />
<path
   style="fill:#000000;stroke-width:0"
   inkscape:connector-curvature="0"
   d="m 355.26,465.17 0,0.03 0,0.02 -0.01,0.02 0,0.03 0,0.02 -0.01,0.02 -0.01,0.02 -0.01,0.03 -0.01,0.02 -0.01,0.02 -0.01,0.02 -0.01,0.02 -0.01,0.02 -0.02,0.02 -0.01,0.01 -0.02,0.02 -0.01,0.02 -0.02,0.01 -0.02,0.02 -0.02,0.01 -0.02,0.01 -0.02,0.02 -0.02,0.01 -0.02,0.01 -0.02,0 -0.03,0.01 -0.02,0.01 -0.02,0 -0.03,0.01 -0.02,0 -0.03,0 -0.02,0 c -0.28,0 -0.49,-0.22 -0.49,-0.48 0,-0.26 0.21,-0.48 0.49,-0.48 0.27,0 0.48,0.22 0.48,0.48 z"
   id="path7334" />
<path
   style="fill:#000000;stroke-width:0"
   inkscape:connector-curvature="0"
   d="m 365.28,468.83 0,0 0,0 0.01,0.01 0,0 0,0 0,0.01 0,0 0,0 0,0.01 0.01,0 0,0.01 0,0 0,0.01 0.01,0.01 0,0.01 0,0.01 0.01,0 0,0 0,0.01 0,0 0,0.01 0,0 0,0.01 0,0 0.01,0 0,0.01 0,0 0,0 c 0,0.08 -0.07,0.08 -0.23,0.08 h -6.33 c -0.16,0 -0.22,0 -0.22,-0.08 0,-0.03 0.03,-0.09 0.04,-0.12 l 3.08,-5.97 c 0.1,-0.19 0.12,-0.23 0.26,-0.23 0.15,0 0.18,0.05 0.25,0.19 l 0.04,0.67 -2.51,4.87 h 5.02 l -2.51,-4.87 -0.04,-0.67 z"
   id="path7336" />
<path
   style="fill:#000000;stroke-width:0"
   inkscape:connector-curvature="0"
   d="m 370.15,465.84 0.01,0.03 0,0.02 0.01,0.02 0.01,0.03 0,0.02 0.01,0.03 0.01,0.05 0.01,0.06 0.02,0.05 0.01,0.05 0.01,0.03 0,0.03 0.01,0.02 0.01,0.03 0,0.02 0.01,0.02 0,0.02 0.01,0.03 0,0.01 0.01,0.02 0,0.02 0,0.02 0.01,0.01 0,0.01 0,0.01 0,0.01 0,0 0,0.01 0,0 0,0 c 0,0.12 -0.08,0.26 -0.27,0.26 -0.13,0 -0.26,-0.08 -0.33,-0.19 -0.04,-0.09 -0.65,-2.51 -0.7,-2.8 -0.19,-0.33 -0.55,-0.74 -1.04,-0.74 -0.56,0 -0.56,0.57 -0.56,0.74 0,0.4 0.12,0.84 0.5,1.84 0.08,0.2 0.13,0.33 0.13,0.5 0,0.44 -0.33,0.75 -0.77,0.75 -0.86,0 -1.22,-1.27 -1.22,-1.38 0,-0.08 0.06,-0.1 0.13,-0.1 0.1,0 0.11,0.05 0.14,0.17 0.19,0.64 0.54,1.09 0.92,1.09 0.19,0 0.22,-0.14 0.22,-0.3 0,-0.15 -0.04,-0.31 -0.12,-0.53 -0.42,-1.1 -0.54,-1.48 -0.54,-1.91 0,-0.99 0.81,-1.09 1.14,-1.09 0.51,0 0.88,0.31 1.09,0.59 0.17,-0.59 0.77,-0.59 0.82,-0.59 0.26,0 0.48,0.12 0.67,0.47 0.16,0.3 0.3,0.87 0.3,0.91 0,0.04 -0.03,0.1 -0.12,0.1 -0.11,0 -0.12,-0.04 -0.15,-0.21 -0.18,-0.71 -0.37,-1.05 -0.67,-1.05 -0.22,0 -0.28,0.19 -0.28,0.41 0,0.17 0.04,0.35 0.12,0.67 l 0.23,0.92 z"
   id="path7338" />
<path
   style="fill:#000000;stroke-width:0"
   inkscape:connector-curvature="0"
   d="m 379.19,464.98 0.03,0 0.03,0 0.03,0 0.01,0 0.02,0 0.01,0 0.02,0 0.01,0 0.01,0.01 0.02,0 0.01,0 0.01,0.01 0.01,0 0.01,0 0.02,0.01 0.01,0.01 0.01,0 0.01,0.01 0,0.01 0.01,0.01 0.01,0.01 0,0 0.01,0.01 0,0 0,0.01 0,0.01 0.01,0 0,0.01 0,0.01 0,0 0,0.01 0,0.01 0.01,0.01 0,0.01 0,0 0,0.01 0,0.01 c 0,0.19 -0.18,0.19 -0.33,0.19 h -4.95 c -0.15,0 -0.33,0 -0.33,-0.19 0,-0.19 0.17,-0.19 0.33,-0.19 z"
   id="path7340" />
<path
   style="fill:#000000;stroke-width:0"
   inkscape:connector-curvature="0"
   d="m 385.64,465.51 0.04,-0.12 0.05,-0.12 0.05,-0.12 0.04,-0.12 0.05,-0.12 0.04,-0.11 0.04,-0.11 0.04,-0.11 0.04,-0.1 0.04,-0.1 0.03,-0.1 0.04,-0.1 0.03,-0.09 0.04,-0.09 0.03,-0.09 0.03,-0.08 0.03,-0.08 0.03,-0.07 0.02,-0.08 0.03,-0.06 0.02,-0.07 0.03,-0.06 0.02,-0.05 0.02,-0.05 0.02,-0.05 0.01,-0.04 0.02,-0.04 0.01,-0.03 0.02,-0.03 0.01,-0.03 0.01,-0.01 0.01,-0.02 c 0.18,-0.23 0.25,-0.23 0.52,-0.23 h 0.2 c 0.06,0.01 0.11,0.03 0.11,0.1 0,0.04 -0.02,0.06 -0.05,0.1 -0.11,0.11 -0.16,0.23 -0.21,0.38 l -1.91,5.11 c -0.2,0.55 -0.8,0.61 -1.12,0.61 -0.08,0 -0.2,0 -0.2,-0.11 0,-0.09 0.08,-0.1 0.18,-0.11 0.26,-0.05 0.37,-0.3 0.51,-0.63 l 0.92,-2.47 -2.53,-2.43 c -0.09,-0.09 -0.16,-0.16 -0.16,-0.29 0,-0.19 0.16,-0.28 0.29,-0.28 0.15,0 0.26,0.14 0.29,0.17 z"
   id="path7342" />
<path
   style="fill:#000000;stroke-width:0"
   inkscape:connector-curvature="0"
   d="m 392.04,466.23 0,0.03 0,0.02 0,0.03 0,0.03 -0.01,0.02 0,0.03 0,0.02 0,0.03 -0.01,0.02 0,0.02 -0.01,0.02 0,0.02 -0.01,0.02 0,0.02 -0.01,0.02 0,0.01 -0.01,0.02 -0.01,0.02 0,0.01 -0.01,0.02 -0.01,0.01 0,0.02 -0.01,0.01 -0.01,0.01 -0.01,0.02 -0.02,0.03 -0.02,0.02 -0.02,0.01 -0.01,0.02 -0.02,0.01 -0.02,0.01 -0.02,0.01 -0.01,0.01 -0.02,0.01 -0.02,0.01 -0.01,0 -0.02,0.01 -0.01,0 -0.02,0 -0.01,0.01 -0.01,0 -0.01,0 -0.01,0 -0.01,0 c -0.23,0 -0.46,-0.24 -0.46,-0.45 0,-0.13 0.08,-0.2 0.15,-0.26 0.24,-0.22 0.32,-0.51 0.32,-0.74 0,-0.39 -0.57,-2.39 -1.6,-2.39 -0.68,0 -0.68,0.63 -0.68,0.79 0,0.38 0.13,0.84 0.44,1.65 0.15,0.38 0.18,0.47 0.18,0.64 0,0.44 -0.33,0.75 -0.77,0.75 -0.86,0 -1.22,-1.27 -1.22,-1.38 0,-0.08 0.07,-0.1 0.13,-0.1 0.1,0 0.11,0.05 0.14,0.17 0.19,0.65 0.55,1.09 0.92,1.09 0.18,0 0.22,-0.12 0.22,-0.3 0,-0.15 -0.04,-0.31 -0.12,-0.53 -0.32,-0.85 -0.54,-1.43 -0.54,-1.87 0,-0.84 0.64,-1.13 1.26,-1.13 1.5,0 2.04,2.82 2.04,3.4 z"
   id="path7344" />
<path
   style="fill:#000000;stroke-width:0"
   inkscape:connector-curvature="0"
   d="m 396.89,465.84 0.01,0.03 0,0.02 0.01,0.02 0.01,0.03 0,0.02 0.01,0.03 0.01,0.05 0.01,0.06 0.02,0.05 0.01,0.05 0.01,0.03 0,0.03 0.01,0.02 0.01,0.03 0,0.02 0.01,0.02 0,0.02 0.01,0.03 0,0.01 0.01,0.02 0,0.02 0,0.02 0.01,0.01 0,0.01 0,0.01 0,0.01 0,0 0,0.01 0,0 0,0 c 0,0.12 -0.08,0.26 -0.27,0.26 -0.13,0 -0.26,-0.08 -0.33,-0.19 -0.04,-0.09 -0.65,-2.51 -0.7,-2.8 -0.19,-0.33 -0.55,-0.74 -1.04,-0.74 -0.56,0 -0.56,0.57 -0.56,0.74 0,0.4 0.12,0.84 0.5,1.84 0.08,0.2 0.13,0.33 0.13,0.5 0,0.44 -0.33,0.75 -0.77,0.75 -0.86,0 -1.22,-1.27 -1.22,-1.38 0,-0.08 0.07,-0.1 0.13,-0.1 0.1,0 0.1,0.05 0.14,0.17 0.19,0.64 0.54,1.09 0.92,1.09 0.19,0 0.22,-0.14 0.22,-0.3 0,-0.15 -0.04,-0.31 -0.12,-0.53 -0.42,-1.1 -0.54,-1.48 -0.54,-1.91 0,-0.99 0.81,-1.09 1.14,-1.09 0.51,0 0.88,0.31 1.09,0.59 0.17,-0.59 0.77,-0.59 0.82,-0.59 0.26,0 0.48,0.12 0.67,0.47 0.16,0.3 0.3,0.87 0.3,0.91 0,0.04 -0.03,0.1 -0.12,0.1 -0.11,0 -0.12,-0.04 -0.15,-0.21 -0.18,-0.71 -0.37,-1.05 -0.68,-1.05 -0.21,0 -0.27,0.19 -0.27,0.41 0,0.17 0.04,0.35 0.12,0.67 l 0.23,0.92 z"
   id="path7346" />
<path
   style="fill:#000000;stroke-width:0"
   inkscape:connector-curvature="0"
   d="m 404.42,466.35 -0.01,0.01 -0.01,0.01 -0.01,0.01 -0.01,0.01 -0.01,0.01 -0.02,0.02 -0.01,0.02 -0.02,0.02 -0.02,0.02 -0.03,0.02 -0.02,0.02 -0.03,0.02 -0.03,0.03 -0.03,0.02 -0.04,0.02 -0.03,0.03 -0.04,0.02 -0.04,0.02 -0.04,0.03 -0.04,0.02 -0.05,0.02 -0.04,0.02 -0.05,0.02 -0.05,0.02 -0.05,0.01 -0.06,0.02 -0.05,0.01 -0.06,0.01 -0.06,0.01 -0.06,0 -0.06,0.01 -0.07,0 c -1.1,0 -2.06,-0.88 -2.06,-2.03 0,-1.12 0.9,-2.02 1.96,-2.02 l 0.04,0.22 c -0.39,0 -0.75,0.22 -0.98,0.59 -0.23,0.39 -0.25,0.91 -0.25,1.2 0,0.42 0.06,0.89 0.29,1.25 0.19,0.29 0.56,0.57 1.04,0.57 0.37,0 0.73,-0.19 0.97,-0.53 0.11,-0.14 0.11,-0.15 0.11,-0.32 V 464 c 0,-0.16 0,-0.19 -0.13,-0.38 -0.28,-0.4 -0.69,-0.57 -1.05,-0.57 l -0.04,-0.22 c 0.66,0 1.06,0.38 1.22,0.57 v -0.57 l 1.35,0.1 v 0.27 c -0.61,0 -0.69,0.07 -0.69,0.51 v 5.42 l -1.32,-0.1 v -0.27 c 0.61,0 0.69,-0.06 0.69,-0.5 z"
   id="path7348" />
<path
   style="fill:#000000;stroke-width:0"
   inkscape:connector-curvature="0"
   d="m 411.81,467.98 0.03,0.05 0.04,0.05 0.03,0.05 0.04,0.05 0.03,0.04 0.03,0.04 0.04,0.04 0.03,0.04 0.03,0.03 0.03,0.04 0.04,0.03 0.03,0.03 0.03,0.03 0.03,0.02 0.04,0.03 0.03,0.02 0.03,0.02 0.04,0.02 0.03,0.02 0.03,0.02 0.04,0.01 0.03,0.02 0.04,0.01 0.03,0.01 0.04,0.01 0.03,0.01 0.04,0.01 0.03,0.01 0.04,0 0.04,0.01 0.03,0 0.04,0.01 c 0.11,0.01 0.19,0.01 0.19,0.16 0,0.07 -0.05,0.11 -0.11,0.11 -0.04,0 -0.27,-0.02 -0.74,-0.02 -0.29,0 -0.59,0.02 -0.87,0.02 -0.06,0 -0.16,-0.01 -0.16,-0.16 0,-0.1 0.1,-0.11 0.13,-0.11 0.08,-0.01 0.41,-0.03 0.41,-0.29 0,-0.07 -0.03,-0.13 -0.07,-0.2 -0.03,-0.08 -0.05,-0.11 -0.08,-0.17 l -2.81,-4.34 -0.68,4.73 c 0,0.08 0.06,0.27 0.62,0.27 0.11,0 0.22,0 0.22,0.16 0,0.1 -0.09,0.11 -0.15,0.11 -0.16,0 -0.35,-0.01 -0.52,-0.01 -0.18,0 -0.37,-0.01 -0.56,-0.01 -0.16,0 -0.41,0 -0.49,0.01 -0.08,0 -0.44,0.01 -0.51,0.01 -0.04,0 -0.17,0 -0.17,-0.16 0,-0.11 0.1,-0.11 0.21,-0.11 0.5,0 0.51,-0.08 0.55,-0.31 l 0.78,-5.49 c 0.03,-0.17 0.04,-0.23 0.19,-0.23 0.15,0 0.2,0.07 0.26,0.18 z"
   id="path7350" />
<path
   style="fill:#000000;stroke-width:0"
   inkscape:connector-curvature="0"
   d="m 422.35,465.89 0.01,0 0.01,0 0.03,0 0.02,0 0.01,0 0.02,0 0.01,0 0.01,0 0.01,0 0.02,0.01 0.01,0 0.01,0 0.01,0.01 0.01,0 0.01,0.01 0.01,0 0.01,0.01 0.01,0 0.01,0.01 0.01,0.01 0.01,0.01 0,0 0,0.01 0.01,0 0,0.01 0,0 0.01,0.01 0,0 0,0.01 0,0.01 0.01,0 0,0.01 0,0.01 0,0 0,0.01 0,0.01 0,0.01 0,0.01 0,0.01 c 0,0.19 -0.19,0.19 -0.33,0.19 h -5.46 c -0.14,0 -0.33,0 -0.33,-0.19 0,-0.19 0.18,-0.19 0.29,-0.19 z"
   id="path7352" />
<path
   style="fill:#000000;stroke-width:0"
   inkscape:connector-curvature="0"
   d="m 422.31,464.06 0.01,0 0.02,0 0.02,0 0.03,0 0.03,0.01 0.01,0 0.02,0 0.01,0 0.02,0 0.01,0.01 0.01,0 0.02,0 0.01,0.01 0.01,0 0.01,0.01 0.01,0 0.01,0.01 0.01,0.01 0.01,0.01 0.01,0.01 0.01,0 0,0.01 0,0 0.01,0.01 0,0 0,0.01 0.01,0 0,0.01 0,0.01 0,0 0.01,0.01 0,0.01 0,0.01 0,0.01 0,0 0,0.01 0,0.01 0,0.01 c 0,0.19 -0.17,0.19 -0.29,0.19 h -5.54 c -0.11,0 -0.29,0 -0.29,-0.19 0,-0.2 0.19,-0.2 0.33,-0.2 z"
   id="path7354" />
<path
   style="fill:#000000;stroke-width:0"
   inkscape:connector-curvature="0"
   d="m 426.77,454.61 0.03,0.01 0.03,0 0.03,0 0.02,0.01 0.03,0.01 0.02,0 0.03,0.01 0.02,0.01 0.02,0.01 0.02,0.01 0.03,0.02 0.01,0.01 0.02,0.01 0.02,0.02 0.02,0.01 0.01,0.02 0.02,0.02 0.01,0.01 0.02,0.02 0.01,0.02 0.01,0.02 0.01,0.02 0.01,0.02 0.01,0.02 0,0.02 0.01,0.02 0.01,0.03 0,0.02 0,0.02 0.01,0.02 0,0.03 0,0.02 c 0,0.33 -0.25,0.49 -0.48,0.49 -0.24,0 -0.49,-0.15 -0.49,-0.5 0,-0.51 0.5,-0.92 1.11,-0.92 1.51,0 2.08,2.32 2.78,5.2 0.77,3.14 1.42,6.31 1.95,9.5 0.37,2.11 0.74,4.1 1.08,5.38 0.12,0.49 0.46,1.77 0.84,1.77 0.31,0 0.56,-0.19 0.6,-0.23 -0.33,-0.02 -0.5,-0.24 -0.5,-0.49 0,-0.32 0.25,-0.48 0.48,-0.48 0.24,0 0.49,0.15 0.49,0.5 0,0.53 -0.54,0.92 -1.09,0.92 -0.75,0 -1.31,-1.08 -1.86,-3.11 -0.03,-0.11 -1.38,-5.1 -2.47,-11.59 -0.26,-1.52 -0.55,-3.18 -0.88,-4.56 -0.18,-0.73 -0.64,-2.6 -1.44,-2.6 -0.36,0 -0.6,0.23 -0.61,0.23 z"
   id="path7356" />
<path
   style="fill:#000000;stroke-width:0"
   inkscape:connector-curvature="0"
   d="m 436.07,454.62 h -0.23 c -0.03,-0.15 -0.07,-0.35 -0.12,-0.46 -0.03,-0.06 -0.05,-0.12 -0.42,-0.12 h -0.53 c 0.1,0.31 0.26,0.52 0.54,0.88 0.35,0.44 0.68,0.85 0.68,1.39 0,0.81 -0.92,1.49 -2.12,1.49 -1.23,0 -2.13,-0.69 -2.13,-1.49 0,-0.54 0.33,-0.95 0.68,-1.39 0.26,-0.33 0.43,-0.56 0.54,-0.88 h -0.53 c -0.37,0 -0.39,0.06 -0.42,0.14 -0.04,0.09 -0.08,0.23 -0.12,0.44 h -0.22 l 0.22,-1.02 h 1.14 c 0.13,0 0.17,0 0.17,0.14 0,0.45 -0.24,0.97 -0.41,1.33 -0.19,0.39 -0.39,0.81 -0.39,1.24 0,0.84 0.73,1.3 1.46,1.3 0.77,0 1.46,-0.48 1.46,-1.3 0,-0.39 -0.15,-0.77 -0.36,-1.21 -0.2,-0.41 -0.44,-0.91 -0.44,-1.36 0,-0.14 0.05,-0.14 0.18,-0.14 h 1.14 z"
   id="path7358" />
<path
   style="fill:#000000;stroke-width:0"
   inkscape:connector-curvature="0"
   d="m 442.81,466.23 0,0.03 0,0.02 0,0.03 0,0.03 0,0.02 0,0.03 -0.01,0.02 0,0.03 0,0.02 -0.01,0.02 0,0.02 -0.01,0.02 0,0.02 -0.01,0.02 0,0.02 -0.01,0.01 -0.01,0.02 0,0.02 -0.01,0.01 -0.01,0.02 0,0.01 -0.01,0.02 -0.01,0.01 -0.01,0.01 -0.01,0.02 -0.02,0.03 -0.01,0.02 -0.02,0.01 -0.02,0.02 -0.02,0.01 -0.01,0.01 -0.02,0.01 -0.02,0.01 -0.02,0.01 -0.01,0.01 -0.02,0 -0.02,0.01 -0.01,0 -0.01,0 -0.02,0.01 -0.01,0 -0.01,0 -0.01,0 -0.01,0 c -0.22,0 -0.45,-0.24 -0.45,-0.45 0,-0.13 0.08,-0.2 0.14,-0.26 0.24,-0.22 0.32,-0.51 0.32,-0.74 0,-0.39 -0.56,-2.39 -1.6,-2.39 -0.67,0 -0.67,0.63 -0.67,0.79 0,0.38 0.12,0.84 0.44,1.65 0.14,0.38 0.18,0.47 0.18,0.64 0,0.44 -0.34,0.75 -0.78,0.75 -0.86,0 -1.21,-1.27 -1.21,-1.38 0,-0.08 0.06,-0.1 0.12,-0.1 0.1,0 0.11,0.05 0.15,0.17 0.18,0.65 0.54,1.09 0.92,1.09 0.18,0 0.21,-0.12 0.21,-0.3 0,-0.15 -0.03,-0.31 -0.11,-0.53 -0.33,-0.85 -0.54,-1.43 -0.54,-1.87 0,-0.84 0.63,-1.13 1.25,-1.13 1.51,0 2.04,2.82 2.04,3.4 z"
   id="path7360" />
<path
   style="fill:#000000;stroke-width:0"
   inkscape:connector-curvature="0"
   d="m 446.65,466.5 h 0.81 c 0.18,0 0.27,0 0.27,0.17 0,0.11 -0.09,0.11 -0.26,0.11 h -0.76 c 0.1,0.54 0.22,1.27 0.34,1.75 0.08,0.35 0.29,0.48 0.47,0.48 0.06,0 0.26,-0.02 0.41,-0.13 -0.17,-0.03 -0.43,-0.19 -0.43,-0.49 0,-0.22 0.17,-0.32 0.34,-0.32 0.24,0 0.49,0.2 0.49,0.54 0,0.4 -0.4,0.62 -0.82,0.62 -0.4,0 -0.8,-0.28 -0.99,-0.65 -0.2,-0.39 -0.26,-0.73 -0.45,-1.8 h -0.64 c -0.17,0 -0.28,0 -0.28,-0.16 0,-0.12 0.1,-0.12 0.26,-0.12 h 0.61 c -0.25,-1.29 -0.57,-3.08 -0.76,-4.01 -0.11,-0.49 -0.25,-1.17 -0.68,-1.17 -0.14,0 -0.32,0.05 -0.41,0.12 0.23,0.04 0.45,0.23 0.45,0.5 0,0.22 -0.17,0.32 -0.34,0.32 -0.24,0 -0.49,-0.2 -0.49,-0.54 0,-0.41 0.41,-0.62 0.79,-0.62 0.91,0 1.33,1.48 1.47,2.25 z"
   id="path7362" />
<path
   style="fill:#000000;stroke-width:0"
   inkscape:connector-curvature="0"
   d="m 455.33,466.35 0,0.01 -0.01,0.01 -0.01,0.01 -0.01,0.01 -0.01,0.01 -0.02,0.02 -0.02,0.02 -0.01,0.02 -0.03,0.02 -0.02,0.02 -0.03,0.02 -0.02,0.02 -0.03,0.03 -0.03,0.02 -0.04,0.02 -0.03,0.03 -0.04,0.02 -0.04,0.02 -0.04,0.03 -0.04,0.02 -0.05,0.02 -0.04,0.02 -0.05,0.02 -0.05,0.02 -0.06,0.01 -0.05,0.02 -0.06,0.01 -0.05,0.01 -0.06,0.01 -0.06,0 -0.07,0.01 -0.06,0 c -1.1,0 -2.06,-0.88 -2.06,-2.03 0,-1.12 0.89,-2.02 1.96,-2.02 l 0.04,0.22 c -0.39,0 -0.75,0.22 -0.98,0.59 -0.23,0.39 -0.25,0.91 -0.25,1.2 0,0.42 0.05,0.89 0.29,1.25 0.19,0.29 0.56,0.57 1.04,0.57 0.37,0 0.73,-0.19 0.97,-0.53 0.11,-0.14 0.11,-0.15 0.11,-0.32 V 464 c 0,-0.16 0,-0.19 -0.14,-0.38 -0.27,-0.4 -0.69,-0.57 -1.04,-0.57 l -0.04,-0.22 c 0.65,0 1.06,0.38 1.22,0.57 v -0.57 l 1.35,0.1 v 0.27 c -0.61,0 -0.69,0.07 -0.69,0.51 v 5.42 l -1.32,-0.1 v -0.27 c 0.6,0 0.68,-0.06 0.68,-0.5 z"
   id="path7364" />
<path
   style="fill:#000000;stroke-width:0"
   inkscape:connector-curvature="0"
   d="m 462.73,467.98 0.03,0.05 0.04,0.05 0.03,0.05 0.03,0.05 0.04,0.04 0.03,0.04 0.03,0.04 0.04,0.04 0.03,0.03 0.03,0.04 0.04,0.03 0.03,0.03 0.03,0.03 0.03,0.02 0.04,0.03 0.03,0.02 0.03,0.02 0.04,0.02 0.03,0.02 0.03,0.02 0.04,0.01 0.03,0.02 0.03,0.01 0.04,0.01 0.03,0.01 0.04,0.01 0.04,0.01 0.03,0.01 0.04,0 0.04,0.01 0.03,0 0.04,0.01 c 0.11,0.01 0.19,0.01 0.19,0.16 0,0.07 -0.05,0.11 -0.12,0.11 -0.03,0 -0.26,-0.02 -0.73,-0.02 -0.29,0 -0.59,0.02 -0.87,0.02 -0.06,0 -0.16,-0.01 -0.16,-0.16 0,-0.1 0.1,-0.11 0.13,-0.11 0.08,-0.01 0.41,-0.03 0.41,-0.29 0,-0.07 -0.03,-0.13 -0.07,-0.2 -0.03,-0.08 -0.05,-0.11 -0.08,-0.17 l -2.81,-4.34 -0.68,4.73 c 0,0.08 0.06,0.27 0.62,0.27 0.11,0 0.21,0 0.21,0.16 0,0.1 -0.09,0.11 -0.14,0.11 -0.16,0 -0.35,-0.01 -0.52,-0.01 -0.18,0 -0.37,-0.01 -0.56,-0.01 -0.16,0 -0.41,0 -0.5,0.01 -0.07,0 -0.43,0.01 -0.5,0.01 -0.04,0 -0.17,0 -0.17,-0.16 0,-0.11 0.1,-0.11 0.21,-0.11 0.5,0 0.51,-0.08 0.55,-0.31 l 0.78,-5.49 c 0.03,-0.17 0.04,-0.23 0.19,-0.23 0.15,0 0.2,0.07 0.26,0.18 z"
   id="path7366" />
</g>  </g>
</svg>
