<?xml version="1.0" encoding="UTF-8" standalone="no"?>
<!-- Created with Inkscape (http://www.inkscape.org/) -->

<svg
   xmlns:dc="http://purl.org/dc/elements/1.1/"
   xmlns:cc="http://creativecommons.org/ns#"
   xmlns:rdf="http://www.w3.org/1999/02/22-rdf-syntax-ns#"
   xmlns:svg="http://www.w3.org/2000/svg"
   xmlns="http://www.w3.org/2000/svg"
   xmlns:sodipodi="http://sodipodi.sourceforge.net/DTD/sodipodi-0.dtd"
   xmlns:inkscape="http://www.inkscape.org/namespaces/inkscape"
   width="640"
   height="200"
   id="svg6640"
   version="1.1"
   inkscape:version="0.48.3.1 r9886"
   sodipodi:docname="New document 16">
  <defs
     id="defs6642">
    <marker
       style="overflow:visible"
       id="DotM"
       refX="0"
       refY="0"
       orient="auto"
       inkscape:stockid="DotM">
      <path
         inkscape:connector-curvature="0"
         transform="matrix(0.4,0,0,0.4,2.96,0.4)"
         style="fill-rule:evenodd;stroke:#000000;stroke-width:1pt;marker-start:none;marker-end:none"
         d="m -2.5,-1 c 0,2.76 -2.24,5 -5,5 -2.76,0 -5,-2.24 -5,-5 0,-2.76 2.24,-5 5,-5 2.76,0 5,2.24 5,5 z"
         id="path21623" />
    </marker>
    <marker
       style="overflow:visible"
       id="marker6562"
       refX="0"
       refY="0"
       orient="auto"
       inkscape:stockid="DotM">
      <path
         inkscape:connector-curvature="0"
         transform="matrix(0.4,0,0,0.4,2.96,0.4)"
         style="fill-rule:evenodd;stroke:#000000;stroke-width:1pt;marker-start:none;marker-end:none"
         d="m -2.5,-1 c 0,2.76 -2.24,5 -5,5 -2.76,0 -5,-2.24 -5,-5 0,-2.76 2.24,-5 5,-5 2.76,0 5,2.24 5,5 z"
         id="path6564" />
    </marker>
    <marker
       style="overflow:visible"
       id="marker6566"
       refX="0"
       refY="0"
       orient="auto"
       inkscape:stockid="DotM">
      <path
         inkscape:connector-curvature="0"
         transform="matrix(0.4,0,0,0.4,2.96,0.4)"
         style="fill-rule:evenodd;stroke:#000000;stroke-width:1pt;marker-start:none;marker-end:none"
         d="m -2.5,-1 c 0,2.76 -2.24,5 -5,5 -2.76,0 -5,-2.24 -5,-5 0,-2.76 2.24,-5 5,-5 2.76,0 5,2.24 5,5 z"
         id="path6568" />
    </marker>
    <marker
       style="overflow:visible"
       id="marker6570"
       refX="0"
       refY="0"
       orient="auto"
       inkscape:stockid="DotM">
      <path
         inkscape:connector-curvature="0"
         transform="matrix(0.4,0,0,0.4,2.96,0.4)"
         style="fill-rule:evenodd;stroke:#000000;stroke-width:1pt;marker-start:none;marker-end:none"
         d="m -2.5,-1 c 0,2.76 -2.24,5 -5,5 -2.76,0 -5,-2.24 -5,-5 0,-2.76 2.24,-5 5,-5 2.76,0 5,2.24 5,5 z"
         id="path6572" />
    </marker>
    <marker
       style="overflow:visible"
       id="marker6574"
       refX="0"
       refY="0"
       orient="auto"
       inkscape:stockid="DotM">
      <path
         inkscape:connector-curvature="0"
         transform="matrix(0.4,0,0,0.4,2.96,0.4)"
         style="fill-rule:evenodd;stroke:#000000;stroke-width:1pt;marker-start:none;marker-end:none"
         d="m -2.5,-1 c 0,2.76 -2.24,5 -5,5 -2.76,0 -5,-2.24 -5,-5 0,-2.76 2.24,-5 5,-5 2.76,0 5,2.24 5,5 z"
         id="path6576" />
    </marker>
    <marker
       style="overflow:visible"
       id="marker6578"
       refX="0"
       refY="0"
       orient="auto"
       inkscape:stockid="DotM">
      <path
         inkscape:connector-curvature="0"
         transform="matrix(0.4,0,0,0.4,2.96,0.4)"
         style="fill-rule:evenodd;stroke:#000000;stroke-width:1pt;marker-start:none;marker-end:none"
         d="m -2.5,-1 c 0,2.76 -2.24,5 -5,5 -2.76,0 -5,-2.24 -5,-5 0,-2.76 2.24,-5 5,-5 2.76,0 5,2.24 5,5 z"
         id="path6580" />
    </marker>
    <marker
       style="overflow:visible"
       id="marker6582"
       refX="0"
       refY="0"
       orient="auto"
       inkscape:stockid="DotM">
      <path
         inkscape:connector-curvature="0"
         transform="matrix(0.4,0,0,0.4,2.96,0.4)"
         style="fill-rule:evenodd;stroke:#000000;stroke-width:1pt;marker-start:none;marker-end:none"
         d="m -2.5,-1 c 0,2.76 -2.24,5 -5,5 -2.76,0 -5,-2.24 -5,-5 0,-2.76 2.24,-5 5,-5 2.76,0 5,2.24 5,5 z"
         id="path6584" />
    </marker>
    <marker
       style="overflow:visible"
       id="marker6586"
       refX="0"
       refY="0"
       orient="auto"
       inkscape:stockid="DotM">
      <path
         inkscape:connector-curvature="0"
         transform="matrix(0.4,0,0,0.4,2.96,0.4)"
         style="fill-rule:evenodd;stroke:#000000;stroke-width:1pt;marker-start:none;marker-end:none"
         d="m -2.5,-1 c 0,2.76 -2.24,5 -5,5 -2.76,0 -5,-2.24 -5,-5 0,-2.76 2.24,-5 5,-5 2.76,0 5,2.24 5,5 z"
         id="path6588" />
    </marker>
    <marker
       style="overflow:visible"
       id="marker6590"
       refX="0"
       refY="0"
       orient="auto"
       inkscape:stockid="DotM">
      <path
         inkscape:connector-curvature="0"
         transform="matrix(0.4,0,0,0.4,2.96,0.4)"
         style="fill-rule:evenodd;stroke:#000000;stroke-width:1pt;marker-start:none;marker-end:none"
         d="m -2.5,-1 c 0,2.76 -2.24,5 -5,5 -2.76,0 -5,-2.24 -5,-5 0,-2.76 2.24,-5 5,-5 2.76,0 5,2.24 5,5 z"
         id="path6592" />
    </marker>
    <marker
       style="overflow:visible"
       id="marker6594"
       refX="0"
       refY="0"
       orient="auto"
       inkscape:stockid="DotM">
      <path
         inkscape:connector-curvature="0"
         transform="matrix(0.4,0,0,0.4,2.96,0.4)"
         style="fill-rule:evenodd;stroke:#000000;stroke-width:1pt;marker-start:none;marker-end:none"
         d="m -2.5,-1 c 0,2.76 -2.24,5 -5,5 -2.76,0 -5,-2.24 -5,-5 0,-2.76 2.24,-5 5,-5 2.76,0 5,2.24 5,5 z"
         id="path6596" />
    </marker>
    <marker
       style="overflow:visible"
       id="marker6598"
       refX="0"
       refY="0"
       orient="auto"
       inkscape:stockid="DotM">
      <path
         inkscape:connector-curvature="0"
         transform="matrix(0.4,0,0,0.4,2.96,0.4)"
         style="fill-rule:evenodd;stroke:#000000;stroke-width:1pt;marker-start:none;marker-end:none"
         d="m -2.5,-1 c 0,2.76 -2.24,5 -5,5 -2.76,0 -5,-2.24 -5,-5 0,-2.76 2.24,-5 5,-5 2.76,0 5,2.24 5,5 z"
         id="path6600" />
    </marker>
    <marker
       style="overflow:visible"
       id="marker6602"
       refX="0"
       refY="0"
       orient="auto"
       inkscape:stockid="DotM">
      <path
         inkscape:connector-curvature="0"
         transform="matrix(0.4,0,0,0.4,2.96,0.4)"
         style="fill-rule:evenodd;stroke:#000000;stroke-width:1pt;marker-start:none;marker-end:none"
         d="m -2.5,-1 c 0,2.76 -2.24,5 -5,5 -2.76,0 -5,-2.24 -5,-5 0,-2.76 2.24,-5 5,-5 2.76,0 5,2.24 5,5 z"
         id="path6604" />
    </marker>
    <marker
       style="overflow:visible"
       id="marker6606"
       refX="0"
       refY="0"
       orient="auto"
       inkscape:stockid="DotM">
      <path
         inkscape:connector-curvature="0"
         transform="matrix(0.4,0,0,0.4,2.96,0.4)"
         style="fill-rule:evenodd;stroke:#000000;stroke-width:1pt;marker-start:none;marker-end:none"
         d="m -2.5,-1 c 0,2.76 -2.24,5 -5,5 -2.76,0 -5,-2.24 -5,-5 0,-2.76 2.24,-5 5,-5 2.76,0 5,2.24 5,5 z"
         id="path6608" />
    </marker>
    <marker
       style="overflow:visible"
       id="marker6610"
       refX="0"
       refY="0"
       orient="auto"
       inkscape:stockid="DotM">
      <path
         inkscape:connector-curvature="0"
         transform="matrix(0.4,0,0,0.4,2.96,0.4)"
         style="fill-rule:evenodd;stroke:#000000;stroke-width:1pt;marker-start:none;marker-end:none"
         d="m -2.5,-1 c 0,2.76 -2.24,5 -5,5 -2.76,0 -5,-2.24 -5,-5 0,-2.76 2.24,-5 5,-5 2.76,0 5,2.24 5,5 z"
         id="path6612" />
    </marker>
    <marker
       style="overflow:visible"
       id="marker6614"
       refX="0"
       refY="0"
       orient="auto"
       inkscape:stockid="DotM">
      <path
         inkscape:connector-curvature="0"
         transform="matrix(0.4,0,0,0.4,2.96,0.4)"
         style="fill-rule:evenodd;stroke:#000000;stroke-width:1pt;marker-start:none;marker-end:none"
         d="m -2.5,-1 c 0,2.76 -2.24,5 -5,5 -2.76,0 -5,-2.24 -5,-5 0,-2.76 2.24,-5 5,-5 2.76,0 5,2.24 5,5 z"
         id="path6616" />
    </marker>
    <marker
       style="overflow:visible"
       id="marker6618"
       refX="0"
       refY="0"
       orient="auto"
       inkscape:stockid="DotM">
      <path
         inkscape:connector-curvature="0"
         transform="matrix(0.4,0,0,0.4,2.96,0.4)"
         style="fill-rule:evenodd;stroke:#000000;stroke-width:1pt;marker-start:none;marker-end:none"
         d="m -2.5,-1 c 0,2.76 -2.24,5 -5,5 -2.76,0 -5,-2.24 -5,-5 0,-2.76 2.24,-5 5,-5 2.76,0 5,2.24 5,5 z"
         id="path6620" />
    </marker>
    <marker
       style="overflow:visible"
       id="marker6622"
       refX="0"
       refY="0"
       orient="auto"
       inkscape:stockid="DotM">
      <path
         inkscape:connector-curvature="0"
         transform="matrix(0.4,0,0,0.4,2.96,0.4)"
         style="fill-rule:evenodd;stroke:#000000;stroke-width:1pt;marker-start:none;marker-end:none"
         d="m -2.5,-1 c 0,2.76 -2.24,5 -5,5 -2.76,0 -5,-2.24 -5,-5 0,-2.76 2.24,-5 5,-5 2.76,0 5,2.24 5,5 z"
         id="path6624" />
    </marker>
    <marker
       style="overflow:visible"
       id="marker6626"
       refX="0"
       refY="0"
       orient="auto"
       inkscape:stockid="DotM">
      <path
         inkscape:connector-curvature="0"
         transform="matrix(0.4,0,0,0.4,2.96,0.4)"
         style="fill-rule:evenodd;stroke:#000000;stroke-width:1pt;marker-start:none;marker-end:none"
         d="m -2.5,-1 c 0,2.76 -2.24,5 -5,5 -2.76,0 -5,-2.24 -5,-5 0,-2.76 2.24,-5 5,-5 2.76,0 5,2.24 5,5 z"
         id="path6628" />
    </marker>
  </defs>
  <sodipodi:namedview
     id="base"
     pagecolor="#ffffff"
     bordercolor="#666666"
     borderopacity="1.0"
     inkscape:pageopacity="0.0"
     inkscape:pageshadow="2"
     inkscape:zoom="1.2537109"
     inkscape:cx="473.26975"
     inkscape:cy="226.47141"
     inkscape:document-units="px"
     inkscape:current-layer="layer1"
     showgrid="true"
     showguides="true"
     inkscape:guide-bbox="true"
     inkscape:window-width="1920"
     inkscape:window-height="1059"
     inkscape:window-x="0"
     inkscape:window-y="0"
     inkscape:window-maximized="1">
    <inkscape:grid
       type="xygrid"
       id="grid6648"
       empspacing="5"
       visible="true"
       enabled="true"
       snapvisiblegridlinesonly="true" />
  </sodipodi:namedview>
  <metadata
     id="metadata6645">
    <rdf:RDF>
      <cc:Work
         rdf:about="">
        <dc:format>image/svg+xml</dc:format>
        <dc:type
           rdf:resource="http://purl.org/dc/dcmitype/StillImage" />
        <dc:title></dc:title>
      </cc:Work>
    </rdf:RDF>
  </metadata>
  <g
     inkscape:label="Layer 1"
     inkscape:groupmode="layer"
     id="layer1"
     transform="translate(0,-852.36218)">
    <g
       style="display:inline"
       transform="matrix(3.5897984,0,0,3.5897984,-1664.8992,-382.29197)"
       id="g33354">
      <path
         style="fill:#b3ffe6;fill-opacity:1;stroke:#737373;stroke-width:0.27856717px;stroke-linecap:round;stroke-linejoin:round;stroke-opacity:1;marker-start:url(#DotM);marker-mid:url(#DotM)"
         d="m 479.99997,392.36218 20.00003,-15 9.99997,15 z"
         id="path23831"
         inkscape:connector-curvature="0"
         sodipodi:nodetypes="cccc" />
      <path
         inkscape:connector-curvature="0"
         id="path24209"
         d="m 479.99997,392.36218 20.00003,-15 -15.0102,-9.99428 z"
         style="fill:#b3ffe6;fill-opacity:1;stroke:#737373;stroke-width:0.27856717px;stroke-linecap:round;stroke-linejoin:round;stroke-opacity:1;marker-start:url(#DotM);marker-mid:url(#DotM)"
         sodipodi:nodetypes="cccc" />
      <path
         sodipodi:nodetypes="cccc"
         style="fill:#b3ffe6;fill-opacity:1;stroke:#737373;stroke-width:0.27856717px;stroke-linecap:round;stroke-linejoin:round;stroke-opacity:1;marker-start:url(#DotM);marker-mid:url(#DotM)"
         d="m 500,357.36218 0,20 -15.0102,-9.99428 z"
         id="path24211"
         inkscape:connector-curvature="0" />
      <path
         inkscape:connector-curvature="0"
         id="path24213"
         d="m 500,357.36218 0,20 19.9898,-9.99428 z"
         style="fill:#b3ffe6;fill-opacity:1;stroke:#737373;stroke-width:0.27856717px;stroke-linecap:round;stroke-linejoin:round;stroke-opacity:1;marker-start:url(#DotM);marker-mid:url(#DotM)"
         sodipodi:nodetypes="cccc" />
      <path
         sodipodi:nodetypes="cccc"
         style="fill:#b3ffe6;fill-opacity:1;stroke:#737373;stroke-width:0.27856717px;stroke-linecap:round;stroke-linejoin:round;stroke-opacity:1;marker-start:url(#DotM);marker-mid:url(#DotM)"
         d="m 540,382.36218 -40,-5 19.9898,-9.99428 z"
         id="path24215"
         inkscape:connector-curvature="0" />
      <path
         inkscape:connector-curvature="0"
         id="path24217"
         d="m 540,382.36218 -40,-5 9.9898,15.00572 z"
         style="fill:#b3ffe6;fill-opacity:1;stroke:#737373;stroke-width:0.27856717px;stroke-linecap:round;stroke-linejoin:round;stroke-opacity:1;marker-start:url(#DotM);marker-mid:url(#DotM)"
         sodipodi:nodetypes="cccc" />
      <path
         sodipodi:nodetypes="cccc"
         style="fill:#b3ffe6;fill-opacity:1;stroke:#737373;stroke-width:0.27856717px;stroke-linecap:round;stroke-linejoin:round;stroke-opacity:1;marker-start:url(#DotM);marker-mid:url(#DotM)"
         d="m 479.99997,392.36218 -9.99997,-25 14.9898,0.006 z"
         id="path33332"
         inkscape:connector-curvature="0" />
      <path
         inkscape:connector-curvature="0"
         id="path33334"
         d="m 480,352.36218 -10,15 14.9898,0.006 z"
         style="fill:#b3ffe6;fill-opacity:1;stroke:#737373;stroke-width:0.27856717px;stroke-linecap:round;stroke-linejoin:round;stroke-opacity:1;marker-start:url(#DotM);marker-mid:url(#DotM)"
         sodipodi:nodetypes="cccc" />
      <path
         sodipodi:nodetypes="cccc"
         style="fill:#00da92;fill-opacity:1;stroke:#110ca9;stroke-width:0.27856717px;stroke-linecap:round;stroke-linejoin:round;stroke-opacity:1;marker-start:url(#DotM);marker-mid:url(#DotM)"
         d="m 480,352.36218 20,5 -15.0102,10.006 z"
         id="path33336"
         inkscape:connector-curvature="0" />
    </g>
    <text
       xml:space="preserve"
       style="font-size:8px;font-style:normal;font-weight:bold;text-align:start;line-height:125%;letter-spacing:0px;word-spacing:0px;text-anchor:start;fill:#000000;fill-opacity:1;stroke:none;font-family:Sans;-inkscape-font-specification:Sans Bold"
       x="50"
       y="872.36218"
       id="text6747"
       sodipodi:linespacing="125%"><tspan
         sodipodi:role="line"
         id="tspan6749"
         x="50"
         y="872.36218"
         style="font-size:20px">1</tspan></text>
    <text
       sodipodi:linespacing="125%"
       id="text6763"
       y="872.36218"
       x="50"
       style="font-size:8px;font-style:normal;font-weight:bold;text-align:start;line-height:125%;letter-spacing:0px;word-spacing:0px;text-anchor:start;fill:#000000;fill-opacity:1;stroke:none;font-family:Sans;-inkscape-font-specification:Sans Bold"
       xml:space="preserve"><tspan
         style="font-size:18px"
         y="872.36218"
         x="50"
         id="tspan6765"
         sodipodi:role="line">1</tspan></text>
    <text
       xml:space="preserve"
       style="font-size:8px;font-style:normal;font-weight:bold;text-align:start;line-height:125%;letter-spacing:0px;word-spacing:0px;text-anchor:start;fill:#000000;fill-opacity:1;stroke:none;font-family:Sans;-inkscape-font-specification:Sans Bold"
       x="0"
       y="942.36218"
       id="text6771"
       sodipodi:linespacing="125%"><tspan
         sodipodi:role="line"
         id="tspan6773"
         x="0"
         y="942.36218"
         style="font-size:18px">0</tspan></text>
    <text
       sodipodi:linespacing="125%"
       id="text6775"
       y="932.36218"
       x="60"
       style="font-size:8px;font-style:normal;font-weight:bold;text-align:start;line-height:125%;letter-spacing:0px;word-spacing:0px;text-anchor:start;fill:#000000;fill-opacity:1;stroke:none;font-family:Sans;-inkscape-font-specification:Sans Bold"
       xml:space="preserve"><tspan
         style="font-size:18px"
         y="932.36218"
         x="60"
         id="tspan6777"
         sodipodi:role="line">2</tspan></text>
    <text
       xml:space="preserve"
       style="font-size:8px;font-style:normal;font-weight:bold;text-align:start;line-height:125%;letter-spacing:0px;word-spacing:0px;text-anchor:start;fill:#000000;fill-opacity:1;stroke:none;font-family:Sans;-inkscape-font-specification:Sans Bold"
       x="140"
       y="892.36218"
       id="text6779"
       sodipodi:linespacing="125%"><tspan
         sodipodi:role="line"
         id="tspan6781"
         x="140"
         y="892.36218"
         style="font-size:18px">3</tspan></text>
    <text
       xml:space="preserve"
       style="font-size:8px;font-style:normal;font-weight:bold;text-align:start;line-height:125%;letter-spacing:0px;word-spacing:0px;text-anchor:start;fill:#000000;fill-opacity:1;stroke:none;font-family:Sans;-inkscape-font-specification:Sans Bold"
       x="210"
       y="932.36218"
       id="text6787"
       sodipodi:linespacing="125%"><tspan
         sodipodi:role="line"
         id="tspan6789"
         x="210"
         y="932.36218"
         style="font-size:18px">6</tspan></text>
    <text
       sodipodi:linespacing="125%"
       id="text6791"
       y="972.36218"
       x="110"
       style="font-size:8px;font-style:normal;font-weight:bold;text-align:start;line-height:125%;letter-spacing:0px;word-spacing:0px;text-anchor:start;fill:#000000;fill-opacity:1;stroke:none;font-family:Sans;-inkscape-font-specification:Sans Bold"
       xml:space="preserve"><tspan
         style="font-size:18px"
         y="972.36218"
         x="110"
         id="tspan6793"
         sodipodi:role="line">5</tspan></text>
    <text
       xml:space="preserve"
       style="font-size:8px;font-style:normal;font-weight:bold;text-align:start;line-height:125%;letter-spacing:0px;word-spacing:0px;text-anchor:start;fill:#000000;fill-opacity:1;stroke:none;font-family:Sans;-inkscape-font-specification:Sans Bold"
       x="40"
       y="1042.3622"
       id="text6795"
       sodipodi:linespacing="125%"><tspan
         sodipodi:role="line"
         id="tspan6797"
         x="40"
         y="1042.3622"
         style="font-size:18px">4</tspan></text>
    <text
       sodipodi:linespacing="125%"
       id="text6799"
       y="1046.3622"
       x="162"
       style="font-size:8px;font-style:normal;font-weight:bold;text-align:start;line-height:125%;letter-spacing:0px;word-spacing:0px;text-anchor:start;fill:#000000;fill-opacity:1;stroke:none;font-family:Sans;-inkscape-font-specification:Sans Bold"
       xml:space="preserve"><tspan
         style="font-size:18px"
         y="1046.3622"
         x="162"
         id="tspan6801"
         sodipodi:role="line">7</tspan></text>
    <text
       xml:space="preserve"
       style="font-size:8px;font-style:normal;font-weight:bold;text-align:start;line-height:125%;letter-spacing:0px;word-spacing:0px;text-anchor:start;fill:#000000;fill-opacity:1;stroke:none;font-family:Sans;-inkscape-font-specification:Sans Bold"
       x="260"
       y="1012.3622"
       id="text6803"
       sodipodi:linespacing="125%"><tspan
         sodipodi:role="line"
         id="tspan6805"
         x="260"
         y="1012.3622"
         style="font-size:18px">8</tspan></text>
    <text
       xml:space="preserve"
       style="font-size:8px;font-style:normal;font-weight:bold;text-align:start;line-height:125%;letter-spacing:0px;word-spacing:0px;text-anchor:start;fill:#a40000;fill-opacity:1;stroke:none;font-family:Sans;-inkscape-font-specification:Sans Bold"
       x="40"
       y="922.36218"
       id="text6807"
       sodipodi:linespacing="125%"><tspan
         sodipodi:role="line"
         id="tspan6809"
         x="40"
         y="922.36218"
         style="font-size:18px;fill:#a40000">0</tspan></text>
    <text
       sodipodi:linespacing="125%"
       id="text6811"
       y="912.36218"
       x="80"
       style="font-size:8px;font-style:normal;font-weight:bold;text-align:start;line-height:125%;letter-spacing:0px;word-spacing:0px;text-anchor:start;fill:#a40000;fill-opacity:1;stroke:none;font-family:Sans;-inkscape-font-specification:Sans Bold"
       xml:space="preserve"><tspan
         style="font-size:18px;fill:#a40000"
         y="912.36218"
         x="80"
         id="tspan6813"
         sodipodi:role="line">1</tspan></text>
    <text
       xml:space="preserve"
       style="font-size:8px;font-style:normal;font-weight:bold;text-align:start;line-height:125%;letter-spacing:0px;word-spacing:0px;text-anchor:start;fill:#a40000;fill-opacity:1;stroke:none;font-family:Sans;-inkscape-font-specification:Sans Bold"
       x="100"
       y="942.36218"
       id="text6815"
       sodipodi:linespacing="125%"><tspan
         sodipodi:role="line"
         id="tspan6817"
         x="100"
         y="942.36218"
         style="font-size:18px;fill:#a40000">3</tspan></text>
    <text
       sodipodi:linespacing="125%"
       id="text6819"
       y="972.36218"
       x="50"
       style="font-size:8px;font-style:normal;font-weight:bold;text-align:start;line-height:125%;letter-spacing:0px;word-spacing:0px;text-anchor:start;fill:#a40000;fill-opacity:1;stroke:none;font-family:Sans;-inkscape-font-specification:Sans Bold"
       xml:space="preserve"><tspan
         style="font-size:18px;fill:#a40000"
         y="972.36218"
         x="50"
         id="tspan6821"
         sodipodi:role="line">2</tspan></text>
    <text
       xml:space="preserve"
       style="font-size:8px;font-style:normal;font-weight:bold;text-align:start;line-height:125%;letter-spacing:0px;word-spacing:0px;text-anchor:start;fill:#a40000;fill-opacity:1;stroke:none;font-family:Sans;-inkscape-font-specification:Sans Bold"
       x="90"
       y="982.36218"
       id="text6823"
       sodipodi:linespacing="125%"><tspan
         sodipodi:role="line"
         id="tspan6825"
         x="90"
         y="982.36218"
         style="font-size:18px;fill:#a40000">4</tspan></text>
    <text
       sodipodi:linespacing="125%"
       id="text6827"
       y="942.36218"
       x="140"
       style="font-size:8px;font-style:normal;font-weight:bold;text-align:start;line-height:125%;letter-spacing:0px;word-spacing:0px;text-anchor:start;fill:#a40000;fill-opacity:1;stroke:none;font-family:Sans;-inkscape-font-specification:Sans Bold"
       xml:space="preserve"><tspan
         style="font-size:18px;fill:#a40000"
         y="942.36218"
         x="140"
         id="tspan6829"
         sodipodi:role="line">5</tspan></text>
    <text
       xml:space="preserve"
       style="font-size:8px;font-style:normal;font-weight:bold;text-align:start;line-height:125%;letter-spacing:0px;word-spacing:0px;text-anchor:start;fill:#a40000;fill-opacity:1;stroke:none;font-family:Sans;-inkscape-font-specification:Sans Bold"
       x="190"
       y="972.36218"
       id="text6831"
       sodipodi:linespacing="125%"><tspan
         sodipodi:role="line"
         id="tspan6833"
         x="190"
         y="972.36218"
         style="font-size:18px;fill:#a40000">8</tspan></text>
    <text
       sodipodi:linespacing="125%"
       id="text6835"
       y="1002.3622"
       x="170"
       style="font-size:8px;font-style:normal;font-weight:bold;text-align:start;line-height:125%;letter-spacing:0px;word-spacing:0px;text-anchor:start;fill:#a40000;fill-opacity:1;stroke:none;font-family:Sans;-inkscape-font-specification:Sans Bold"
       xml:space="preserve"><tspan
         style="font-size:18px;fill:#a40000"
         y="1002.3622"
         x="170"
         id="tspan6837"
         sodipodi:role="line">7</tspan></text>
    <text
       xml:space="preserve"
       style="font-size:8px;font-style:normal;font-weight:bold;text-align:start;line-height:125%;letter-spacing:0px;word-spacing:0px;text-anchor:start;fill:#a40000;fill-opacity:1;stroke:none;font-family:Sans;-inkscape-font-specification:Sans Bold"
       x="120"
       y="1012.3622"
       id="text6839"
       sodipodi:linespacing="125%"><tspan
         sodipodi:role="line"
         id="tspan6841"
         x="120"
         y="1012.3622"
         style="font-size:18px;fill:#a40000">6</tspan></text>
    <text
       xml:space="preserve"
       style="font-size:8px;font-style:normal;font-weight:bold;text-align:start;line-height:125%;letter-spacing:0px;word-spacing:0px;text-anchor:start;fill:#000000;fill-opacity:1;stroke:none;font-family:Sans;-inkscape-font-specification:Sans Bold"
       x="298"
       y="886.36218"
       id="text6843"
       sodipodi:linespacing="125%"><tspan
         sodipodi:role="line"
         id="tspan6845"
         x="298"
         y="886.36218"
         style="font-size:20px">OP2 Sets:</tspan><tspan
         sodipodi:role="line"
         x="298"
         y="911.36218"
         style="font-size:20px;font-weight:normal;-inkscape-font-specification:Sans"
         id="tspan6857">nodes = [0, ..., 8]</tspan><tspan
         sodipodi:role="line"
         x="298"
         y="936.36218"
         style="font-size:20px;font-weight:normal;-inkscape-font-specification:Sans"
         id="tspan6847">elements = [0, ..., 8]</tspan><tspan
         sodipodi:role="line"
         x="298"
         y="961.36218"
         style="font-size:20px"
         id="tspan6849">OP2 Map elements-nodes:</tspan><tspan
         sodipodi:role="line"
         x="298"
         y="986.36218"
         style="font-size:20px;font-weight:normal;-inkscape-font-specification:Sans"
         id="tspan6851">elem_nodes = [..., [1, 3, 2], ...]</tspan><tspan
         sodipodi:role="line"
         x="298"
         y="1011.3622"
         style="font-size:20px"
         id="tspan6853">OP2 Dat on nodes:</tspan><tspan
         sodipodi:role="line"
         x="298"
         y="1036.3622"
         style="font-size:20px;font-weight:normal;-inkscape-font-specification:Sans"
         id="tspan6855">coords = [[0, 0], [.45, .55], ...]</tspan></text>
  </g>
</svg>
